<svg xmlns="http://www.w3.org/2000/svg" xmlns:xlink="http://www.w3.org/1999/xlink" width="500" zoomAndPan="magnify" viewBox="0 0 375 374.999991" height="500" preserveAspectRatio="xMidYMid meet" version="1.0"><defs><clipPath id="1c1030db89"><path d="M 36.933594 40 L 73 40 L 73 105 L 36.933594 105 Z M 36.933594 40 " clip-rule="nonzero"/></clipPath><clipPath id="556f009bee"><path d="M 302 40 L 337.683594 40 L 337.683594 105 L 302 105 Z M 302 40 " clip-rule="nonzero"/></clipPath></defs><rect x="-37.5" width="450" fill="#ffffff" y="-37.499999" height="449.999989" fill-opacity="1"/><rect x="-37.5" width="450" fill="#000000" y="-37.499999" height="449.999989" fill-opacity="1"/><path fill="#0f0f0f" d="M 118.742188 291.035156 C 120.546875 291.554688 122.441406 291.792969 124.386719 291.792969 L 250.109375 291.792969 C 252.667969 291.792969 255.136719 291.367188 257.410156 290.558594 C 259.023438 290.039062 260.539062 289.28125 261.960938 288.425781 C 269.214844 301.273438 274.429688 315.210938 277.320312 329.71875 L 97.171875 329.71875 C 100.066406 315.210938 105.28125 301.273438 112.535156 288.425781 C 114.429688 289.613281 116.515625 290.511719 118.742188 291.035156 Z M 118.742188 291.035156 " fill-opacity="1" fill-rule="nonzero"/><path fill="#0f0f0f" d="M 253.808594 98.039062 L 270.257812 147.390625 C 271.820312 151.988281 272.582031 156.777344 272.582031 161.613281 C 272.582031 171.613281 269.308594 180.90625 263.714844 188.347656 C 262.433594 190.101562 261.011719 191.761719 259.449219 193.328125 C 256.179688 196.597656 252.386719 199.394531 248.214844 201.480469 L 248.214844 201.527344 C 242.097656 204.65625 235.128906 206.457031 227.734375 206.457031 C 216.640625 206.457031 205.6875 204.324219 195.402344 200.25 L 187.246094 196.976562 L 179.09375 200.25 C 168.804688 204.324219 157.855469 206.457031 146.761719 206.457031 C 139.367188 206.457031 132.398438 204.65625 126.28125 201.527344 L 126.28125 201.480469 C 122.109375 199.394531 118.316406 196.597656 115.046875 193.328125 C 113.480469 191.761719 112.058594 190.101562 110.78125 188.347656 C 106.371094 182.472656 103.429688 175.503906 102.386719 167.917969 C 102.054688 165.878906 101.914062 163.746094 101.914062 161.613281 C 101.914062 156.777344 102.671875 151.988281 104.238281 147.390625 L 120.6875 98.039062 L 139.839844 90.59375 L 139.839844 102.164062 C 139.839844 115.246094 145.148438 127.097656 153.730469 135.679688 C 162.3125 144.261719 174.164062 149.570312 187.246094 149.570312 C 213.417969 149.570312 234.65625 128.332031 234.65625 102.164062 L 234.65625 90.59375 Z M 253.808594 98.039062 " fill-opacity="1" fill-rule="nonzero"/><path fill="#0f0f0f" d="M 257.410156 290.558594 C 255.136719 291.367188 252.667969 291.792969 250.109375 291.792969 L 124.386719 291.792969 C 122.441406 291.792969 120.546875 291.554688 118.742188 291.035156 L 122.773438 277.570312 C 124.007812 274.441406 125.097656 271.3125 126.042969 268.089844 L 128.367188 258.605469 C 128.9375 255.476562 129.410156 252.300781 129.789062 249.125 L 130.359375 239.644531 C 130.359375 239.027344 130.359375 238.457031 130.359375 237.84375 C 130.359375 235.28125 130.265625 232.722656 130.074219 230.164062 L 128.984375 220.679688 L 126.28125 201.527344 C 132.398438 204.65625 139.367188 206.457031 146.761719 206.457031 C 157.855469 206.457031 168.804688 204.324219 179.09375 200.25 L 187.246094 196.976562 L 195.402344 200.25 C 205.6875 204.324219 216.640625 206.457031 227.734375 206.457031 C 235.128906 206.457031 242.097656 204.65625 248.214844 201.527344 L 245.511719 220.679688 L 244.421875 230.164062 C 244.230469 232.722656 244.136719 235.28125 244.136719 237.84375 C 244.136719 238.457031 244.136719 239.027344 244.136719 239.644531 L 244.707031 249.125 C 245.085938 252.300781 245.558594 255.476562 246.128906 258.605469 L 248.449219 268.089844 C 249.398438 271.3125 250.488281 274.441406 251.722656 277.570312 L 257.269531 290.179688 Z M 257.410156 290.558594 " fill-opacity="1" fill-rule="nonzero"/><path fill="#0f0f0f" d="M 265.992188 285.203125 C 264.804688 286.433594 263.429688 287.527344 261.960938 288.425781 C 260.539062 289.28125 259.023438 290.039062 257.410156 290.558594 L 257.269531 290.179688 L 251.722656 277.570312 C 250.488281 274.441406 249.398438 271.3125 248.449219 268.089844 L 246.128906 258.605469 C 245.558594 255.476562 245.085938 252.300781 244.707031 249.125 L 244.136719 239.644531 C 244.136719 239.027344 244.136719 238.457031 244.136719 237.84375 C 244.136719 235.28125 244.230469 232.722656 244.421875 230.164062 L 245.511719 220.679688 L 248.214844 201.527344 L 248.214844 201.480469 C 252.386719 199.394531 256.179688 196.597656 259.449219 193.328125 C 261.011719 191.761719 262.433594 190.101562 263.714844 188.347656 L 272.4375 266.855469 C 272.535156 267.660156 272.582031 268.515625 272.582031 269.320312 C 272.582031 275.53125 270.066406 281.171875 265.992188 285.203125 Z M 265.992188 285.203125 " fill-opacity="1" fill-rule="nonzero"/><path fill="#0f0f0f" d="M 130.359375 237.84375 C 130.359375 238.457031 130.359375 239.027344 130.359375 239.644531 L 129.789062 249.125 C 129.410156 252.300781 128.9375 255.476562 128.367188 258.605469 L 126.042969 268.089844 C 125.097656 271.3125 124.007812 274.441406 122.773438 277.570312 L 118.742188 291.035156 C 116.515625 290.511719 114.429688 289.613281 112.535156 288.425781 C 111.0625 287.527344 109.6875 286.433594 108.503906 285.203125 C 104.425781 281.171875 101.914062 275.53125 101.914062 269.320312 C 101.914062 268.515625 101.960938 267.660156 102.054688 266.855469 L 110.78125 188.347656 C 112.058594 190.101562 113.480469 191.761719 115.046875 193.328125 C 118.316406 196.597656 122.109375 199.394531 126.28125 201.480469 L 126.28125 201.527344 L 128.984375 220.679688 L 130.074219 230.164062 C 130.265625 232.722656 130.359375 235.28125 130.359375 237.84375 Z M 130.359375 237.84375 " fill-opacity="1" fill-rule="nonzero"/><path fill="#0f0f0f" d="M 267.792969 103.441406 C 271.160156 104.769531 274.335938 106.429688 277.320312 108.324219 L 277.320312 162.085938 L 272.582031 161.613281 C 272.582031 156.777344 271.820312 151.988281 270.257812 147.390625 L 253.808594 98.039062 Z M 267.792969 103.441406 " fill-opacity="1" fill-rule="nonzero"/><path fill="#0f0f0f" d="M 187.246094 149.570312 C 174.164062 149.570312 162.3125 144.261719 153.730469 135.679688 C 145.148438 127.097656 139.839844 115.246094 139.839844 102.164062 L 139.839844 90.59375 L 143.679688 89.078125 C 152.78125 85.523438 158.804688 76.753906 158.804688 66.988281 L 158.804688 40.535156 L 215.691406 40.535156 L 215.691406 66.988281 C 215.691406 76.753906 221.710938 85.523438 230.816406 89.078125 L 234.65625 90.59375 L 234.65625 102.164062 C 234.65625 128.332031 213.417969 149.570312 187.246094 149.570312 Z M 187.246094 149.570312 " fill-opacity="1" fill-rule="nonzero"/><path fill="#0f0f0f" d="M 120.6875 98.039062 L 104.238281 147.390625 C 102.671875 151.988281 101.914062 156.777344 101.914062 161.613281 C 101.914062 163.746094 102.054688 165.878906 102.386719 167.917969 L 97.171875 167.917969 L 97.171875 108.324219 C 100.160156 106.429688 103.335938 104.769531 106.703125 103.441406 Z M 120.6875 98.039062 " fill-opacity="1" fill-rule="nonzero"/><path fill="#ffffff" d="M 68.730469 154.3125 L 78.210938 154.3125 L 78.210938 201.71875 L 68.730469 201.71875 Z M 68.730469 154.3125 " fill-opacity="1" fill-rule="nonzero"/><path fill="#ffffff" d="M 130.589844 269.414062 L 121.488281 266.757812 C 120.59375 269.828125 119.546875 272.875 118.382812 275.820312 L 127.195312 279.308594 C 128.472656 276.09375 129.609375 272.769531 130.589844 269.414062 Z M 130.589844 269.414062 " fill-opacity="1" fill-rule="nonzero"/><path fill="#ffffff" d="M 134.484375 249.617188 L 125.054688 248.628906 C 124.734375 251.660156 124.277344 254.710938 123.691406 257.691406 L 133 259.515625 C 133.632812 256.265625 134.132812 252.9375 134.484375 249.617188 Z M 134.484375 249.617188 " fill-opacity="1" fill-rule="nonzero"/><path fill="#ffffff" d="M 125.605469 239.566406 L 135.085938 239.714844 L 135.097656 237.835938 C 135.097656 235.164062 135.003906 232.484375 134.816406 229.820312 L 125.355469 230.5 C 125.53125 232.945312 125.617188 235.386719 125.617188 237.84375 Z M 125.605469 239.566406 " fill-opacity="1" fill-rule="nonzero"/><g clip-path="url(#1c1030db89)"><path fill="#ffffff" d="M 72.082031 86.550781 L 65.378906 79.847656 L 59.246094 85.976562 L 59.246094 40.535156 L 49.765625 40.535156 L 49.765625 85.976562 L 43.636719 79.847656 L 36.933594 86.550781 L 54.507812 104.125 Z M 72.082031 86.550781 " fill-opacity="1" fill-rule="nonzero"/></g><path fill="#ffffff" d="M 76.820312 217.328125 L 70.117188 224.03125 L 76.246094 230.164062 L 40.285156 230.164062 L 40.285156 239.644531 L 76.246094 239.644531 L 70.117188 245.773438 L 76.820312 252.476562 L 94.394531 234.902344 Z M 76.820312 217.328125 " fill-opacity="1" fill-rule="nonzero"/><path fill="#ffffff" d="M 72.082031 117.773438 L 65.378906 124.476562 L 82.953125 142.050781 L 100.523438 124.476562 L 93.820312 117.773438 L 87.691406 123.902344 L 87.691406 40.535156 L 78.210938 40.535156 L 78.210938 123.902344 Z M 72.082031 117.773438 " fill-opacity="1" fill-rule="nonzero"/><path fill="#ffffff" d="M 296.285156 154.3125 L 305.765625 154.3125 L 305.765625 201.71875 L 296.285156 201.71875 Z M 296.285156 154.3125 " fill-opacity="1" fill-rule="nonzero"/><path fill="#ffffff" d="M 247.296875 279.316406 L 256.113281 275.824219 C 254.945312 272.882812 253.902344 269.832031 253.007812 266.761719 L 243.902344 269.421875 C 244.886719 272.769531 246.023438 276.09375 247.296875 279.316406 Z M 247.296875 279.316406 " fill-opacity="1" fill-rule="nonzero"/><path fill="#ffffff" d="M 241.496094 259.515625 L 250.800781 257.691406 C 250.21875 254.710938 249.757812 251.660156 249.441406 248.628906 L 240.011719 249.617188 C 240.363281 252.9375 240.859375 256.265625 241.496094 259.515625 Z M 241.496094 259.515625 " fill-opacity="1" fill-rule="nonzero"/><path fill="#ffffff" d="M 248.890625 239.566406 L 248.878906 237.84375 C 248.878906 235.386719 248.960938 232.945312 249.136719 230.5 L 239.679688 229.820312 C 239.492188 232.492188 239.394531 235.164062 239.394531 237.835938 L 239.410156 239.714844 Z M 248.890625 239.566406 " fill-opacity="1" fill-rule="nonzero"/><path fill="#ffffff" d="M 267.996094 289.78125 C 273.699219 284.789062 277.320312 277.484375 277.320312 269.332031 C 277.320312 268.332031 277.265625 267.328125 277.15625 266.324219 L 268.625 189.585938 C 274.101562 181.613281 277.320312 171.976562 277.320312 161.589844 C 277.320312 156.246094 276.464844 150.96875 274.777344 145.894531 L 261.507812 106.09375 L 266.058594 107.859375 C 269.105469 109.050781 272.027344 110.542969 274.738281 112.308594 L 279.910156 104.363281 C 276.65625 102.242188 273.15625 100.445312 269.5 99.023438 L 232.527344 84.644531 C 225.183594 81.789062 220.4375 74.855469 220.4375 66.972656 L 220.4375 40.535156 L 210.957031 40.535156 L 210.957031 66.988281 C 210.957031 78.804688 218.070312 89.210938 229.09375 93.492188 L 229.917969 93.8125 L 229.917969 102.164062 C 229.917969 124.089844 213.292969 142.183594 191.992188 144.550781 L 191.992188 125.867188 L 182.511719 125.867188 L 182.511719 144.550781 C 161.210938 142.183594 144.585938 124.089844 144.585938 102.164062 L 144.585938 93.8125 L 145.410156 93.492188 C 156.429688 89.210938 163.546875 78.804688 163.546875 66.988281 L 163.546875 40.535156 L 154.066406 40.535156 L 154.066406 66.988281 C 154.066406 74.867188 149.320312 81.800781 141.976562 84.660156 L 105.003906 99.039062 C 101.351562 100.460938 97.847656 102.257812 94.59375 104.375 L 99.765625 112.320312 C 102.476562 110.558594 105.398438 109.0625 108.441406 107.875 L 112.992188 106.105469 L 99.722656 145.910156 C 98.035156 150.976562 97.179688 156.257812 97.179688 161.601562 C 97.179688 171.984375 100.398438 181.621094 105.871094 189.601562 L 97.339844 266.335938 C 97.230469 267.335938 97.171875 268.335938 97.171875 269.335938 C 97.171875 277.488281 100.796875 284.792969 106.5 289.785156 C 100.011719 302.074219 95.253906 315.144531 92.527344 328.789062 L 91.390625 334.457031 L 283.101562 334.457031 L 281.96875 328.789062 C 279.242188 315.140625 274.480469 302.070312 267.996094 289.78125 Z M 106.65625 269.335938 C 106.65625 268.675781 106.691406 268.023438 106.757812 267.378906 L 114.355469 199.050781 C 116.6875 201.074219 119.207031 202.875 121.894531 204.4375 L 124.3125 221.355469 L 133.695312 220.011719 L 132.121094 208.984375 C 136.757812 210.421875 141.679688 211.199219 146.78125 211.199219 C 158.515625 211.199219 169.988281 208.992188 180.863281 204.632812 L 187.242188 202.082031 L 193.625 204.632812 C 204.507812 208.992188 215.980469 211.199219 227.714844 211.199219 C 232.816406 211.199219 237.742188 210.421875 242.378906 208.984375 L 240.804688 220.011719 L 250.183594 221.355469 L 252.601562 204.4375 C 255.285156 202.875 257.808594 201.074219 260.140625 199.050781 L 267.730469 267.371094 C 267.800781 268.023438 267.839844 268.675781 267.839844 269.335938 C 267.839844 279.105469 259.890625 287.050781 250.117188 287.050781 L 124.375 287.050781 C 114.605469 287.050781 106.65625 279.101562 106.65625 269.335938 Z M 108.71875 148.902344 L 124.476562 101.632812 L 135.105469 97.496094 L 135.105469 102.164062 C 135.105469 130.914062 158.5 154.3125 187.253906 154.3125 C 216.003906 154.3125 239.398438 130.914062 239.398438 102.164062 L 239.398438 97.503906 L 250.027344 101.636719 L 265.789062 148.90625 C 267.15625 153.003906 267.847656 157.273438 267.847656 161.597656 C 267.847656 183.722656 249.847656 201.722656 227.722656 201.722656 C 217.199219 201.722656 206.917969 199.742188 197.160156 195.835938 L 187.261719 191.875 L 177.359375 195.835938 C 167.585938 199.738281 157.304688 201.71875 146.78125 201.71875 C 124.65625 201.71875 106.65625 183.71875 106.65625 161.59375 C 106.65625 157.269531 107.347656 153.003906 108.71875 148.902344 Z M 103.085938 324.976562 C 105.667969 314.445312 109.574219 304.3125 114.605469 294.6875 C 117.640625 295.863281 120.929688 296.53125 124.375 296.53125 L 250.117188 296.53125 C 253.566406 296.53125 256.851562 295.863281 259.890625 294.6875 C 264.917969 304.3125 268.824219 314.445312 271.410156 324.976562 Z M 103.085938 324.976562 " fill-opacity="1" fill-rule="nonzero"/><g clip-path="url(#556f009bee)"><path fill="#ffffff" d="M 337.5625 86.550781 L 330.859375 79.847656 L 324.730469 85.976562 L 324.730469 40.535156 L 315.246094 40.535156 L 315.246094 85.976562 L 309.117188 79.847656 L 302.414062 86.550781 L 319.988281 104.125 Z M 337.5625 86.550781 " fill-opacity="1" fill-rule="nonzero"/></g><path fill="#ffffff" d="M 304.375 224.03125 L 297.671875 217.328125 L 280.097656 234.902344 L 297.671875 252.476562 L 304.375 245.773438 L 298.246094 239.644531 L 334.210938 239.644531 L 334.210938 230.164062 L 298.246094 230.164062 Z M 304.375 224.03125 " fill-opacity="1" fill-rule="nonzero"/><path fill="#ffffff" d="M 273.96875 124.476562 L 291.542969 142.050781 L 309.117188 124.476562 L 302.414062 117.773438 L 296.285156 123.902344 L 296.285156 40.535156 L 286.804688 40.535156 L 286.804688 123.902344 L 280.671875 117.773438 Z M 273.96875 124.476562 " fill-opacity="1" fill-rule="nonzero"/></svg>