<svg xmlns="http://www.w3.org/2000/svg" xmlns:xlink="http://www.w3.org/1999/xlink" width="500" zoomAndPan="magnify" viewBox="0 0 375 374.999991" height="500" preserveAspectRatio="xMidYMid meet" version="1.0"><defs><g/><clipPath id="706de8f6b0"><path d="M 69.023438 54.664062 L 320.777344 54.664062 L 320.777344 306.417969 L 69.023438 306.417969 Z M 69.023438 54.664062 " clip-rule="nonzero"/></clipPath><clipPath id="3b31460fef"><path d="M 194.902344 54.664062 C 125.378906 54.664062 69.023438 111.023438 69.023438 180.542969 C 69.023438 250.0625 125.378906 306.417969 194.902344 306.417969 C 264.421875 306.417969 320.777344 250.0625 320.777344 180.542969 C 320.777344 111.023438 264.421875 54.664062 194.902344 54.664062 Z M 194.902344 54.664062 " clip-rule="nonzero"/></clipPath><clipPath id="2fda2a7b06"><path d="M 0 11 L 168 11 L 168 315 L 0 315 Z M 0 11 " clip-rule="nonzero"/></clipPath><clipPath id="dc4102e4dd"><path d="M -72.09375 11.339844 L 167.539062 176.320312 L 72.089844 314.960938 L -167.542969 149.980469 Z M -72.09375 11.339844 " clip-rule="nonzero"/></clipPath><clipPath id="b475fa03e9"><path d="M 0 0.28125 L 167.761719 0.28125 L 167.761719 304 L 0 304 Z M 0 0.28125 " clip-rule="nonzero"/></clipPath><clipPath id="6ee83211d4"><path d="M -72.09375 0.339844 L 167.539062 165.320312 L 72.089844 303.960938 L -167.542969 138.980469 Z M -72.09375 0.339844 " clip-rule="nonzero"/></clipPath><clipPath id="887b5d9c35"><rect x="0" width="168" y="0" height="304"/></clipPath></defs><rect x="-37.5" width="450" fill="#ffffff" y="-37.499999" height="449.999989" fill-opacity="1"/><rect x="-37.5" width="450" fill="#ffffff" y="-37.499999" height="449.999989" fill-opacity="1"/><g clip-path="url(#706de8f6b0)"><g clip-path="url(#3b31460fef)"><path stroke-linecap="butt" transform="matrix(0.75, 0, 0, 0.75, 69.023803, 54.665504)" fill="none" stroke-linejoin="miter" d="M 167.838065 -0.00192255 C 75.140142 -0.00192255 -0.000487557 75.143916 -0.000487557 167.83663 C -0.000487557 260.529345 75.140142 335.669974 167.838065 335.669974 C 260.53078 335.669974 335.671409 260.529345 335.671409 167.83663 C 335.671409 75.143916 260.53078 -0.00192255 167.838065 -0.00192255 Z M 167.838065 -0.00192255 " stroke="#000000" stroke-width="10" stroke-opacity="1" stroke-miterlimit="4"/></g></g><g clip-path="url(#2fda2a7b06)"><g clip-path="url(#dc4102e4dd)"><g transform="matrix(1, 0, 0, 1, 0, 11)"><g clip-path="url(#887b5d9c35)"><g clip-path="url(#b475fa03e9)"><g clip-path="url(#6ee83211d4)"><path fill="#ffffff" d="M -72.09375 0.339844 L 167.277344 165.140625 L 71.828125 303.777344 L -167.542969 138.980469 Z M -72.09375 0.339844 " fill-opacity="1" fill-rule="nonzero"/></g></g></g></g></g></g><g fill="#000000" fill-opacity="1"><g transform="translate(77.943139, 307.899793)"><g><path d="M 213.84375 -152.640625 C 215.21875 -154.015625 216.535156 -154.300781 217.796875 -153.5 C 219.054688 -152.695312 219 -151.609375 217.625 -150.234375 C 210.050781 -141.523438 201.679688 -132.988281 192.515625 -124.625 C 183.347656 -116.257812 173.722656 -109.097656 163.640625 -103.140625 C 154.472656 -97.867188 145.820312 -94.601562 137.6875 -93.34375 C 129.550781 -92.082031 123.078125 -93.914062 118.265625 -98.84375 C 113.453125 -103.769531 111.160156 -112.878906 111.390625 -126.171875 C 111.847656 -135.109375 110.128906 -139.289062 106.234375 -138.71875 C 102.335938 -138.144531 97.410156 -134.535156 91.453125 -127.890625 C 88.015625 -123.992188 84.691406 -119.753906 81.484375 -115.171875 C 78.273438 -110.585938 74.835938 -105.890625 71.171875 -101.078125 C 63.828125 -91.910156 58.035156 -87.898438 53.796875 -89.046875 C 49.554688 -90.191406 47.78125 -93.972656 48.46875 -100.390625 C 48.925781 -105.203125 50.128906 -110.988281 52.078125 -117.75 C 54.023438 -124.507812 55.457031 -130.867188 56.375 -136.828125 C 57.75 -144.847656 57.234375 -149.945312 54.828125 -152.125 C 52.421875 -154.300781 48.984375 -154.015625 44.515625 -151.265625 C 40.046875 -148.515625 35.0625 -143.585938 29.5625 -136.484375 C 24.976562 -130.296875 20.566406 -123.59375 16.328125 -116.375 C 12.085938 -109.15625 8.078125 -102.28125 4.296875 -95.75 C 0.515625 -89.21875 -2.976562 -83.890625 -6.1875 -79.765625 C -10.3125 -74.722656 -14.035156 -72.257812 -17.359375 -72.375 C -20.679688 -72.488281 -22.570312 -74.722656 -23.03125 -79.078125 C -23.488281 -85.035156 -22.515625 -92.65625 -20.109375 -101.9375 C -17.703125 -111.21875 -14.609375 -120.613281 -10.828125 -130.125 C -7.046875 -139.632812 -3.320312 -147.710938 0.34375 -154.359375 C 1.71875 -156.648438 3.378906 -158.023438 5.328125 -158.484375 C 7.273438 -158.941406 8.878906 -158.597656 10.140625 -157.453125 C 11.398438 -156.304688 11.34375 -154.585938 9.96875 -152.296875 C 7.675781 -147.941406 4.925781 -142.269531 1.71875 -135.28125 C -1.488281 -128.289062 -4.523438 -121.015625 -7.390625 -113.453125 C -10.253906 -105.890625 -12.429688 -99.070312 -13.921875 -93 C -15.410156 -86.925781 -15.582031 -82.628906 -14.4375 -80.109375 C -11.914062 -82.398438 -8.765625 -86.925781 -4.984375 -93.6875 C -1.203125 -100.445312 3.035156 -108.007812 7.734375 -116.375 C 12.429688 -124.738281 17.300781 -132.472656 22.34375 -139.578125 C 30.132812 -150.347656 37.753906 -157.507812 45.203125 -161.0625 C 52.648438 -164.613281 58.609375 -164.554688 63.078125 -160.890625 C 67.546875 -157.222656 68.976562 -149.890625 67.375 -138.890625 C 66.457031 -131.785156 64.910156 -124.566406 62.734375 -117.234375 C 60.554688 -109.898438 59.46875 -104.515625 59.46875 -101.078125 C 62.445312 -104.054688 66.113281 -108.640625 70.46875 -114.828125 C 74.832031 -121.015625 79.535156 -126.972656 84.578125 -132.703125 C 90.535156 -139.117188 96.378906 -143.644531 102.109375 -146.28125 C 107.835938 -148.914062 112.59375 -148.972656 116.375 -146.453125 C 120.15625 -143.929688 121.816406 -138.085938 121.359375 -128.921875 C 120.898438 -121.585938 121.53125 -115.226562 123.25 -109.84375 C 124.96875 -104.457031 128.804688 -101.421875 134.765625 -100.734375 C 140.722656 -100.046875 149.660156 -102.910156 161.578125 -109.328125 C 170.972656 -114.367188 180.253906 -120.898438 189.421875 -128.921875 C 198.585938 -136.941406 206.726562 -144.847656 213.84375 -152.640625 Z M 213.84375 -152.640625 "/></g></g></g><g fill="#000000" fill-opacity="1"><g transform="translate(276.668316, 307.899793)"><g><path d="M 0.6875 -94.203125 C 0 -92.597656 0.0546875 -91.109375 0.859375 -89.734375 C 1.660156 -88.359375 2.863281 -87.671875 4.46875 -87.671875 C 6.300781 -87.671875 8.019531 -88.359375 9.625 -89.734375 C 11.226562 -91.109375 12.375 -92.597656 13.0625 -94.203125 C 13.519531 -96.035156 13.632812 -98.15625 13.40625 -100.5625 C 13.175781 -102.96875 12.144531 -104.171875 10.3125 -104.171875 C 8.707031 -104.171875 6.816406 -102.96875 4.640625 -100.5625 C 2.460938 -98.15625 1.144531 -96.035156 0.6875 -94.203125 Z M 0.6875 -94.203125 "/></g></g></g></svg>