<svg xmlns="http://www.w3.org/2000/svg" xmlns:xlink="http://www.w3.org/1999/xlink" width="500" zoomAndPan="magnify" viewBox="0 0 375 374.999991" height="500" preserveAspectRatio="xMidYMid meet" version="1.0"><defs><clipPath id="a59283107a"><path d="M 36.265625 36.265625 L 338.515625 36.265625 L 338.515625 338.515625 L 36.265625 338.515625 Z M 36.265625 36.265625 " clip-rule="nonzero"/></clipPath></defs><rect x="-37.5" width="450" fill="#ffffff" y="-37.499999" height="449.999989" fill-opacity="1"/><rect x="-37.5" width="450" fill="#000000" y="-37.499999" height="449.999989" fill-opacity="1"/><path fill="#0f0f0f" d="M 333.828125 187.496094 C 333.828125 189.894531 333.769531 192.285156 333.652344 194.679688 C 333.535156 197.070312 333.359375 199.457031 333.125 201.839844 C 332.890625 204.222656 332.597656 206.601562 332.246094 208.96875 C 331.894531 211.339844 331.484375 213.695312 331.015625 216.046875 C 330.550781 218.394531 330.023438 220.730469 329.441406 223.054688 C 328.859375 225.375 328.222656 227.683594 327.527344 229.976562 C 326.832031 232.265625 326.082031 234.539062 325.273438 236.796875 C 324.46875 239.050781 323.605469 241.285156 322.691406 243.496094 C 321.773438 245.707031 320.804688 247.898438 319.777344 250.0625 C 318.753906 252.226562 317.679688 254.367188 316.550781 256.476562 C 315.421875 258.589844 314.242188 260.671875 313.011719 262.726562 C 311.777344 264.78125 310.496094 266.804688 309.167969 268.792969 C 307.835938 270.785156 306.457031 272.742188 305.03125 274.667969 C 303.605469 276.589844 302.132812 278.476562 300.613281 280.328125 C 299.09375 282.179688 297.53125 283.992188 295.921875 285.765625 C 294.3125 287.542969 292.664062 289.277344 290.96875 290.96875 C 289.277344 292.664062 287.542969 294.3125 285.769531 295.921875 C 283.992188 297.53125 282.179688 299.09375 280.328125 300.613281 C 278.476562 302.132812 276.589844 303.605469 274.667969 305.03125 C 272.742188 306.457031 270.785156 307.835938 268.792969 309.167969 C 266.804688 310.496094 264.78125 311.777344 262.726562 313.011719 C 260.671875 314.242188 258.589844 315.421875 256.476562 316.550781 C 254.367188 317.679688 252.226562 318.753906 250.0625 319.777344 C 247.898438 320.804688 245.707031 321.773438 243.496094 322.691406 C 241.285156 323.605469 239.050781 324.46875 236.796875 325.273438 C 234.539062 326.082031 232.265625 326.832031 229.976562 327.527344 C 227.683594 328.222656 225.375 328.863281 223.054688 329.441406 C 220.730469 330.023438 218.394531 330.550781 216.046875 331.015625 C 213.695312 331.484375 211.339844 331.894531 208.96875 332.246094 C 206.601562 332.597656 204.222656 332.890625 201.839844 333.125 C 199.457031 333.359375 197.070312 333.535156 194.679688 333.652344 C 192.285156 333.769531 189.894531 333.828125 187.496094 333.828125 C 185.101562 333.828125 182.710938 333.769531 180.316406 333.652344 C 177.925781 333.535156 175.539062 333.359375 173.15625 333.125 C 170.773438 332.890625 168.394531 332.597656 166.027344 332.246094 C 163.65625 331.894531 161.300781 331.484375 158.949219 331.015625 C 156.601562 330.550781 154.265625 330.023438 151.941406 329.441406 C 149.621094 328.863281 147.3125 328.222656 145.019531 327.527344 C 142.730469 326.832031 140.457031 326.082031 138.199219 325.273438 C 135.945312 324.46875 133.710938 323.605469 131.5 322.691406 C 129.289062 321.773438 127.097656 320.804688 124.933594 319.777344 C 122.769531 318.753906 120.628906 317.679688 118.519531 316.550781 C 116.40625 315.421875 114.324219 314.242188 112.269531 313.011719 C 110.214844 311.777344 108.191406 310.496094 106.199219 309.167969 C 104.210938 307.835938 102.253906 306.457031 100.328125 305.03125 C 98.40625 303.605469 96.519531 302.132812 94.667969 300.613281 C 92.816406 299.09375 91.003906 297.53125 89.226562 295.921875 C 87.453125 294.3125 85.71875 292.664062 84.027344 290.96875 C 82.332031 289.277344 80.683594 287.542969 79.074219 285.769531 C 77.464844 283.992188 75.902344 282.179688 74.382812 280.328125 C 72.863281 278.476562 71.390625 276.589844 69.964844 274.667969 C 68.539062 272.742188 67.160156 270.785156 65.828125 268.792969 C 64.5 266.804688 63.21875 264.78125 61.984375 262.726562 C 60.753906 260.671875 59.574219 258.589844 58.445312 256.476562 C 57.316406 254.367188 56.242188 252.226562 55.214844 250.0625 C 54.191406 247.898438 53.222656 245.707031 52.304688 243.496094 C 51.390625 241.285156 50.527344 239.050781 49.722656 236.796875 C 48.914062 234.539062 48.164062 232.265625 47.46875 229.976562 C 46.773438 227.683594 46.132812 225.375 45.554688 223.054688 C 44.972656 220.730469 44.445312 218.394531 43.980469 216.046875 C 43.511719 213.695312 43.101562 211.339844 42.75 208.96875 C 42.398438 206.601562 42.105469 204.222656 41.871094 201.839844 C 41.636719 199.457031 41.460938 197.070312 41.34375 194.679688 C 41.226562 192.285156 41.167969 189.894531 41.167969 187.496094 C 41.167969 185.101562 41.226562 182.710938 41.34375 180.316406 C 41.460938 177.925781 41.636719 175.539062 41.871094 173.15625 C 42.105469 170.773438 42.398438 168.394531 42.75 166.027344 C 43.101562 163.65625 43.511719 161.300781 43.980469 158.949219 C 44.445312 156.601562 44.972656 154.265625 45.554688 151.941406 C 46.132812 149.621094 46.773438 147.3125 47.46875 145.019531 C 48.164062 142.730469 48.914062 140.457031 49.722656 138.199219 C 50.527344 135.945312 51.390625 133.710938 52.304688 131.5 C 53.222656 129.289062 54.191406 127.097656 55.214844 124.933594 C 56.242188 122.769531 57.316406 120.628906 58.445312 118.519531 C 59.574219 116.40625 60.753906 114.324219 61.984375 112.269531 C 63.21875 110.214844 64.5 108.191406 65.828125 106.199219 C 67.160156 104.210938 68.539062 102.253906 69.964844 100.328125 C 71.390625 98.40625 72.863281 96.519531 74.382812 94.667969 C 75.902344 92.816406 77.464844 91.003906 79.074219 89.226562 C 80.683594 87.453125 82.332031 85.71875 84.027344 84.027344 C 85.71875 82.332031 87.453125 80.683594 89.226562 79.074219 C 91.003906 77.464844 92.816406 75.902344 94.667969 74.382812 C 96.519531 72.863281 98.40625 71.390625 100.328125 69.964844 C 102.253906 68.539062 104.210938 67.160156 106.199219 65.828125 C 108.191406 64.5 110.214844 63.21875 112.269531 61.984375 C 114.324219 60.753906 116.40625 59.574219 118.519531 58.445312 C 120.628906 57.316406 122.769531 56.242188 124.933594 55.214844 C 127.097656 54.191406 129.289062 53.222656 131.5 52.304688 C 133.710938 51.390625 135.945312 50.527344 138.199219 49.722656 C 140.457031 48.914062 142.730469 48.164062 145.019531 47.46875 C 147.3125 46.773438 149.621094 46.132812 151.941406 45.554688 C 154.265625 44.972656 156.601562 44.445312 158.949219 43.980469 C 161.300781 43.511719 163.65625 43.101562 166.027344 42.75 C 168.394531 42.398438 170.773438 42.105469 173.15625 41.871094 C 175.539062 41.636719 177.925781 41.460938 180.316406 41.34375 C 182.710938 41.226562 185.101562 41.167969 187.496094 41.167969 C 189.894531 41.167969 192.285156 41.226562 194.679688 41.34375 C 197.070312 41.460938 199.457031 41.636719 201.839844 41.871094 C 204.222656 42.105469 206.601562 42.398438 208.96875 42.75 C 211.339844 43.101562 213.695312 43.511719 216.046875 43.980469 C 218.394531 44.445312 220.730469 44.972656 223.054688 45.554688 C 225.375 46.132812 227.683594 46.773438 229.976562 47.46875 C 232.265625 48.164062 234.539062 48.914062 236.796875 49.722656 C 239.050781 50.527344 241.285156 51.390625 243.496094 52.304688 C 245.707031 53.222656 247.898438 54.191406 250.0625 55.214844 C 252.226562 56.242188 254.367188 57.316406 256.476562 58.445312 C 258.589844 59.574219 260.671875 60.753906 262.726562 61.984375 C 264.78125 63.21875 266.804688 64.5 268.792969 65.828125 C 270.785156 67.160156 272.742188 68.539062 274.667969 69.964844 C 276.589844 71.390625 278.476562 72.863281 280.328125 74.382812 C 282.179688 75.902344 283.992188 77.464844 285.765625 79.074219 C 287.542969 80.683594 289.277344 82.332031 290.96875 84.027344 C 292.664062 85.71875 294.3125 87.453125 295.921875 89.226562 C 297.53125 91.003906 299.09375 92.816406 300.613281 94.667969 C 302.132812 96.519531 303.605469 98.40625 305.03125 100.328125 C 306.457031 102.253906 307.835938 104.210938 309.167969 106.199219 C 310.496094 108.191406 311.777344 110.214844 313.011719 112.269531 C 314.242188 114.324219 315.421875 116.40625 316.550781 118.519531 C 317.679688 120.628906 318.753906 122.769531 319.777344 124.933594 C 320.804688 127.097656 321.773438 129.289062 322.691406 131.5 C 323.605469 133.710938 324.46875 135.945312 325.273438 138.199219 C 326.082031 140.457031 326.832031 142.730469 327.527344 145.019531 C 328.222656 147.3125 328.859375 149.621094 329.441406 151.941406 C 330.023438 154.265625 330.550781 156.601562 331.015625 158.949219 C 331.484375 161.300781 331.894531 163.65625 332.246094 166.027344 C 332.597656 168.394531 332.890625 170.773438 333.125 173.15625 C 333.359375 175.539062 333.535156 177.925781 333.652344 180.316406 C 333.769531 182.710938 333.828125 185.101562 333.828125 187.496094 Z M 333.828125 187.496094 " fill-opacity="1" fill-rule="nonzero"/><g clip-path="url(#a59283107a)"><path fill="#ffffff" d="M 187.496094 338.726562 C 104.078125 338.726562 36.265625 270.855469 36.265625 187.496094 C 36.265625 104.140625 104.078125 36.265625 187.496094 36.265625 C 270.917969 36.265625 338.726562 104.078125 338.726562 187.496094 C 338.726562 270.917969 270.917969 338.726562 187.496094 338.726562 Z M 187.496094 46.007812 C 109.464844 46.007812 46.007812 109.464844 46.007812 187.496094 C 46.007812 265.53125 109.464844 328.988281 187.496094 328.988281 C 265.53125 328.988281 328.988281 265.53125 328.988281 187.496094 C 328.988281 109.464844 265.53125 46.007812 187.496094 46.007812 Z M 187.496094 46.007812 " fill-opacity="1" fill-rule="nonzero"/></g><path fill="#ffffff" d="M 160.398438 194.878906 C 154.167969 201.289062 143.277344 204.917969 131.964844 204.4375 C 119.988281 203.890625 109.34375 198.929688 102.75 190.824219 C 85.085938 169.046875 96.699219 148.238281 102.445312 140.253906 C 122.53125 112.667969 121.742188 101.597656 121.378906 99.664062 C 121.257812 97.0625 119.082031 94.945312 116.480469 94.945312 C 113.878906 94.945312 111.582031 97.121094 111.582031 99.84375 C 111.582031 102.566406 111.640625 100.8125 111.824219 101.296875 C 111.824219 102.628906 110.914062 112.125 94.640625 134.445312 C 79.820312 154.773438 80.003906 178.121094 95.246094 196.875 C 99.542969 202.199219 105.167969 206.371094 111.582031 209.335938 C 112.003906 211.332031 112.789062 214.234375 113.820312 218.167969 C 117.75 233.109375 127.003906 268.074219 122.53125 279.566406 C 121.5625 282.046875 122.769531 284.890625 125.3125 285.859375 C 125.917969 286.101562 126.460938 286.222656 127.066406 286.222656 C 129.003906 286.222656 130.878906 285.011719 131.601562 283.136719 C 136.804688 269.828125 130.03125 241.335938 123.253906 215.746094 C 123.011719 214.78125 122.769531 213.871094 122.53125 212.964844 C 125.433594 213.570312 128.457031 213.992188 131.542969 214.113281 C 132.390625 214.113281 133.238281 214.113281 134.144531 214.113281 C 147.390625 214.113281 159.671875 209.515625 167.414062 201.53125 C 169.289062 199.597656 169.230469 196.511719 167.292969 194.636719 C 165.359375 192.761719 162.273438 192.820312 160.398438 194.757812 Z M 111.824219 101.476562 Z M 111.824219 101.476562 " fill-opacity="1" fill-rule="nonzero"/><path fill="#ffffff" d="M 291.785156 134.082031 C 292.695312 135.59375 294.328125 136.441406 295.960938 136.441406 C 297.59375 136.441406 297.714844 136.199219 298.5 135.714844 C 300.800781 134.324219 301.527344 131.359375 300.132812 129.003906 C 298.925781 126.945312 297.535156 124.949219 296.140625 122.953125 C 294.570312 120.773438 291.484375 120.292969 289.304688 121.863281 C 287.128906 123.4375 286.644531 126.523438 288.21875 128.699219 C 289.488281 130.453125 290.699219 132.207031 291.785156 134.023438 Z M 291.785156 134.082031 " fill-opacity="1" fill-rule="nonzero"/><path fill="#ffffff" d="M 306.125 165.960938 C 303.460938 165.722656 301.101562 167.71875 300.859375 170.4375 C 300.496094 174.613281 299.710938 178.789062 298.441406 182.78125 C 297.652344 185.320312 299.046875 188.101562 301.648438 188.890625 C 302.128906 189.070312 302.613281 189.132812 303.097656 189.132812 C 305.15625 189.132812 307.089844 187.800781 307.757812 185.742188 C 309.269531 181.023438 310.238281 176.125 310.597656 171.226562 C 310.839844 168.5625 308.84375 166.203125 306.125 165.960938 Z M 306.125 165.960938 " fill-opacity="1" fill-rule="nonzero"/><path fill="#ffffff" d="M 228.089844 222.644531 C 223.855469 221.796875 219.800781 220.527344 216.050781 218.832031 C 213.570312 217.742188 210.726562 218.832031 209.636719 221.375 C 208.550781 223.855469 209.636719 226.695312 212.179688 227.785156 C 216.59375 229.722656 221.3125 231.234375 226.214844 232.203125 C 226.515625 232.261719 226.878906 232.324219 227.179688 232.324219 C 229.480469 232.324219 231.476562 230.75 231.960938 228.390625 C 232.503906 225.730469 230.808594 223.1875 228.148438 222.644531 Z M 228.089844 222.644531 " fill-opacity="1" fill-rule="nonzero"/><path fill="#ffffff" d="M 300.011719 192.519531 C 297.652344 191.1875 294.691406 191.972656 293.359375 194.332031 C 291.664062 197.359375 289.609375 200.261719 287.371094 203.042969 C 286.945312 203.589844 286.464844 204.132812 285.980469 204.679688 C 284.226562 206.675781 284.40625 209.757812 286.402344 211.574219 C 287.308594 212.359375 288.460938 212.785156 289.609375 212.785156 C 290.757812 212.785156 292.332031 212.238281 293.238281 211.152344 C 293.78125 210.546875 294.328125 209.878906 294.871094 209.214844 C 297.472656 206.007812 299.773438 202.679688 301.769531 199.171875 C 303.097656 196.8125 302.3125 193.851562 299.953125 192.519531 Z M 300.011719 192.519531 " fill-opacity="1" fill-rule="nonzero"/><path fill="#ffffff" d="M 297.351562 145.578125 C 298.863281 149.570312 299.890625 153.742188 300.496094 157.855469 C 300.859375 160.277344 302.917969 162.03125 305.335938 162.03125 C 307.757812 162.03125 305.820312 162.03125 306.0625 162.03125 C 308.722656 161.667969 310.597656 159.1875 310.175781 156.527344 C 309.511719 151.746094 308.242188 146.90625 306.546875 142.25 C 305.640625 139.710938 302.796875 138.4375 300.316406 139.347656 C 297.773438 140.253906 296.503906 143.097656 297.414062 145.578125 Z M 297.351562 145.578125 " fill-opacity="1" fill-rule="nonzero"/><path fill="#ffffff" d="M 276.664062 213.027344 C 273.277344 215.445312 269.527344 217.441406 265.59375 219.074219 C 263.113281 220.101562 261.902344 222.945312 262.992188 225.425781 C 263.777344 227.300781 265.59375 228.453125 267.46875 228.453125 C 269.34375 228.453125 268.738281 228.332031 269.34375 228.089844 C 273.941406 226.152344 278.296875 223.792969 282.289062 221.011719 C 284.46875 219.4375 285.011719 216.414062 283.5 214.234375 C 281.925781 212.058594 278.902344 211.511719 276.722656 213.027344 Z M 276.664062 213.027344 " fill-opacity="1" fill-rule="nonzero"/><path fill="#ffffff" d="M 205.222656 212.542969 C 203.589844 211.269531 202.015625 209.878906 200.625 208.429688 C 198.75 206.492188 195.664062 206.433594 193.730469 208.308594 C 191.792969 210.183594 191.734375 213.269531 193.609375 215.203125 C 195.300781 216.957031 197.175781 218.652344 199.234375 220.164062 C 200.140625 220.828125 201.167969 221.191406 202.199219 221.191406 C 203.226562 221.191406 205.101562 220.527344 206.070312 219.316406 C 207.703125 217.199219 207.339844 214.113281 205.222656 212.480469 Z M 205.222656 212.542969 " fill-opacity="1" fill-rule="nonzero"/><path fill="#ffffff" d="M 263.414062 209.394531 C 269.828125 206.433594 275.453125 202.199219 279.75 196.933594 C 294.933594 178.183594 295.175781 154.832031 280.351562 134.507812 C 264.988281 113.457031 263.355469 103.777344 263.171875 101.660156 C 263.355469 101.113281 263.476562 100.511719 263.476562 99.90625 C 263.476562 97.183594 261.296875 95.003906 258.578125 95.003906 C 255.855469 95.003906 253.796875 97.121094 253.675781 99.722656 L 253.554688 99.722656 C 253.191406 101.660156 252.34375 112.730469 272.488281 140.253906 C 278.296875 148.179688 289.851562 169.046875 272.1875 190.824219 C 265.59375 198.929688 254.945312 203.890625 242.96875 204.4375 C 231.65625 204.980469 220.769531 201.289062 214.539062 194.878906 C 212.664062 192.941406 209.578125 192.882812 207.640625 194.757812 C 205.707031 196.632812 205.644531 199.71875 207.519531 201.652344 C 215.265625 209.578125 227.542969 214.234375 240.792969 214.234375 C 254.039062 214.234375 242.484375 214.234375 243.394531 214.234375 C 246.476562 214.113281 249.503906 213.691406 252.40625 213.085938 C 252.164062 213.992188 251.921875 214.902344 251.679688 215.867188 C 251.015625 218.347656 250.347656 220.890625 249.683594 223.429688 C 247.75 223.671875 245.75 223.914062 243.753906 223.976562 C 242.789062 223.976562 241.757812 224.035156 240.792969 224.035156 L 240.609375 224.035156 C 237.949219 224.035156 235.710938 226.214844 235.710938 228.933594 C 235.710938 231.65625 237.886719 233.835938 240.609375 233.835938 L 240.792969 233.835938 C 241.941406 233.835938 243.03125 233.835938 244.179688 233.773438 C 245.148438 233.773438 246.175781 233.59375 247.144531 233.53125 C 242.363281 253.617188 239.21875 272.972656 243.210938 283.316406 C 243.9375 285.253906 245.8125 286.402344 247.75 286.402344 C 249.683594 286.402344 248.957031 286.28125 249.503906 286.039062 C 251.984375 285.070312 253.253906 282.230469 252.285156 279.75 C 248.835938 270.855469 253.617188 247.808594 257.789062 230.929688 C 258.757812 229.84375 259.242188 228.332031 258.9375 226.757812 C 258.9375 226.695312 258.9375 226.574219 258.878906 226.515625 C 259.664062 223.429688 260.390625 220.648438 260.996094 218.347656 C 262.023438 214.417969 262.8125 211.511719 263.234375 209.515625 Z M 263.414062 209.394531 " fill-opacity="1" fill-rule="nonzero"/></svg>