<svg xmlns="http://www.w3.org/2000/svg" xmlns:xlink="http://www.w3.org/1999/xlink" width="500" zoomAndPan="magnify" viewBox="0 0 375 374.999991" height="500" preserveAspectRatio="xMidYMid meet" version="1.0"><rect x="-37.5" width="450" fill="#ffffff" y="-37.499999" height="449.999989" fill-opacity="1"/><rect x="-37.5" width="450" fill="#000000" y="-37.499999" height="449.999989" fill-opacity="1"/><path fill="#ffffff" d="M 187.496094 228.632812 C 183.433594 228.632812 179.359375 226.960938 175.480469 223.632812 C 174.015625 222.367188 173.851562 220.160156 175.117188 218.6875 C 176.375 217.214844 178.59375 217.046875 180.054688 218.3125 C 185.199219 222.742188 189.792969 222.742188 194.9375 218.3125 C 196.402344 217.046875 198.621094 217.214844 199.878906 218.6875 C 201.144531 220.160156 200.976562 222.367188 199.515625 223.632812 C 195.636719 226.960938 191.5625 228.632812 187.496094 228.632812 " fill-opacity="1" fill-rule="nonzero"/><path fill="#ffffff" d="M 214.527344 244.371094 C 213.800781 243.09375 212.171875 242.652344 210.882812 243.378906 L 210.414062 243.644531 C 210.136719 243.800781 209.390625 244.066406 208.566406 244.183594 C 207.730469 244.3125 206.828125 244.398438 205.867188 244.417969 C 203.980469 244.46875 201.96875 244.3125 200.09375 244.035156 C 199.632812 243.96875 197.382812 243.410156 197.128906 243.347656 C 195.105469 243.085938 193.359375 243.125 191.128906 244.675781 C 190.304688 245.292969 188.3125 245.902344 187.496094 245.902344 C 186.683594 245.902344 184.6875 245.292969 183.863281 244.675781 C 181.636719 243.125 179.886719 243.085938 177.867188 243.347656 C 177.609375 243.410156 175.363281 243.96875 174.902344 244.035156 C 173.023438 244.3125 171.011719 244.46875 169.128906 244.417969 C 168.164062 244.398438 167.261719 244.3125 166.425781 244.183594 C 165.601562 244.066406 164.855469 243.800781 164.582031 243.644531 L 164.109375 243.378906 C 162.824219 242.652344 161.195312 243.09375 160.46875 244.371094 C 159.859375 245.460938 160.085938 246.785156 160.9375 247.609375 C 162.285156 248.90625 163.609375 249.417969 164.847656 249.867188 C 166.09375 250.308594 167.3125 250.574219 168.507812 250.742188 C 170.90625 251.117188 173.222656 251.3125 175.628906 251.066406 C 177.140625 250.917969 178.296875 250.605469 178.996094 250.773438 C 179.769531 250.949219 180.242188 251.578125 180.917969 251.960938 C 181.625 252.390625 182.402344 252.695312 183.167969 252.933594 C 184.699219 253.414062 186.152344 253.578125 187.496094 253.578125 C 188.84375 253.578125 190.296875 253.414062 191.828125 252.933594 C 192.59375 252.695312 193.367188 252.390625 194.074219 251.960938 C 194.753906 251.578125 195.222656 250.949219 196 250.773438 C 196.695312 250.605469 197.863281 250.917969 199.367188 251.066406 C 201.773438 251.3125 204.089844 251.117188 206.484375 250.742188 C 207.683594 250.574219 208.902344 250.308594 210.148438 249.867188 C 211.382812 249.417969 212.710938 248.90625 214.054688 247.609375 C 214.910156 246.785156 215.136719 245.460938 214.527344 244.371094 " fill-opacity="1" fill-rule="nonzero"/><path fill="#ffffff" d="M 187.605469 267.117188 C 185.554688 267.117188 183.511719 266.636719 181.527344 265.683594 C 179.652344 264.78125 178.855469 262.523438 179.761719 260.648438 C 180.664062 258.773438 182.921875 257.988281 184.796875 258.890625 C 186.710938 259.8125 188.5 259.8125 190.414062 258.890625 C 192.289062 257.988281 194.535156 258.773438 195.441406 260.648438 C 196.34375 262.535156 195.558594 264.78125 193.683594 265.683594 C 191.6875 266.636719 189.648438 267.117188 187.605469 267.117188 " fill-opacity="1" fill-rule="nonzero"/><path fill="#ffffff" d="M 167.46875 166.972656 C 163.1875 166.640625 158.796875 166.394531 154.429688 166.023438 C 150.050781 165.71875 145.671875 165.363281 141.292969 164.824219 C 141.292969 164.824219 136.363281 164.207031 134.714844 164.066406 C 133.210938 163.949219 129.667969 163.832031 128.667969 163.941406 C 124.699219 164.410156 120.539062 165.875 116.886719 167.777344 L 116.765625 167.839844 C 115.953125 168.269531 114.929688 167.957031 114.507812 167.132812 C 114.117188 166.386719 114.34375 165.480469 115 165 C 118.828125 162.171875 123 160.101562 127.753906 158.902344 C 128.941406 158.617188 133.292969 158.175781 133.292969 158.175781 L 134.96875 158.136719 L 141.695312 158.070312 C 146.183594 158.050781 150.648438 158.355469 155.105469 158.902344 C 159.585938 159.382812 164.023438 160.109375 168.488281 161.300781 C 170.03125 161.710938 170.945312 163.300781 170.542969 164.84375 C 170.167969 166.21875 168.882812 167.09375 167.507812 166.984375 L 167.46875 166.972656 " fill-opacity="1" fill-rule="nonzero"/><path fill="#ffffff" d="M 217.234375 189.910156 C 218.886719 189.957031 220.566406 189.910156 222.222656 189.890625 C 225.601562 189.8125 228.675781 189.644531 231.804688 188.988281 C 234.910156 188.386719 237.882812 187.511719 240.503906 186.199219 C 240.503906 186.199219 241.730469 185.550781 242.066406 185.421875 C 242.742188 185.15625 243.449219 184.980469 244.15625 184.929688 C 245.53125 184.785156 247.113281 185.234375 247.859375 185.617188 C 249.519531 186.375 250.609375 187.023438 252.160156 187.503906 L 252.238281 187.523438 C 253.09375 187.796875 253.582031 188.710938 253.308594 189.585938 C 253.140625 190.105469 252.730469 190.5 252.238281 190.65625 C 250.292969 191.273438 247.988281 191.027344 246.347656 190.742188 C 245.453125 190.605469 245.296875 190.695312 244.933594 190.804688 C 244.785156 190.871094 243.851562 191.539062 243.851562 191.539062 C 240.574219 193.894531 236.84375 195.191406 233.160156 195.929688 C 229.488281 196.65625 225.589844 196.800781 222.058594 196.515625 C 218.40625 196.183594 215.007812 195.898438 211.089844 194.445312 C 209.804688 193.964844 209.136719 192.53125 209.617188 191.234375 C 210.03125 190.136719 211.140625 189.496094 212.25 189.625 C 212.25 189.625 215.605469 189.871094 217.234375 189.910156 " fill-opacity="1" fill-rule="nonzero"/><path fill="#ffffff" d="M 157.757812 189.910156 C 156.109375 189.957031 154.429688 189.910156 152.769531 189.890625 C 149.394531 189.8125 146.320312 189.644531 143.1875 188.988281 C 140.085938 188.386719 137.109375 187.511719 134.488281 186.199219 C 134.488281 186.199219 133.261719 185.550781 132.929688 185.421875 C 132.25 185.15625 131.542969 184.980469 130.835938 184.929688 C 129.460938 184.785156 127.882812 185.234375 127.136719 185.617188 C 125.476562 186.375 124.386719 187.023438 122.835938 187.503906 L 122.757812 187.523438 C 121.902344 187.796875 121.410156 188.710938 121.6875 189.585938 C 121.851562 190.105469 122.265625 190.5 122.757812 190.65625 C 124.699219 191.273438 127.007812 191.027344 128.648438 190.742188 C 129.539062 190.605469 129.699219 190.695312 130.0625 190.804688 C 130.207031 190.871094 131.152344 191.539062 131.152344 191.539062 C 134.421875 193.894531 138.152344 195.191406 141.832031 195.929688 C 145.503906 196.65625 149.402344 196.800781 152.9375 196.515625 C 156.589844 196.183594 159.988281 195.898438 163.902344 194.445312 C 165.191406 193.964844 165.859375 192.53125 165.375 191.234375 C 164.964844 190.136719 163.855469 189.496094 162.746094 189.625 C 162.746094 189.625 159.386719 189.871094 157.757812 189.910156 " fill-opacity="1" fill-rule="nonzero"/><path fill="#ffffff" d="M 206.503906 161.300781 C 210.972656 160.109375 215.410156 159.382812 219.886719 158.902344 C 224.34375 158.355469 228.8125 158.050781 233.296875 158.070312 L 240.023438 158.136719 L 243.597656 158.285156 C 244.84375 158.421875 246.050781 158.617188 247.242188 158.902344 C 251.992188 160.101562 256.164062 162.171875 259.992188 165 C 260.75 165.550781 260.90625 166.601562 260.355469 167.347656 C 259.855469 168.023438 258.945312 168.222656 258.226562 167.839844 L 258.109375 167.777344 C 254.457031 165.875 250.292969 164.410156 246.328125 163.941406 C 245.324219 163.832031 244.335938 163.792969 243.363281 163.804688 L 240.28125 164.066406 L 233.699219 164.824219 C 229.324219 165.363281 224.945312 165.71875 220.566406 166.023438 C 216.195312 166.394531 211.808594 166.640625 207.527344 166.972656 L 207.488281 166.984375 C 205.894531 167.113281 204.503906 165.921875 204.375 164.324219 C 204.257812 162.910156 205.179688 161.652344 206.503906 161.300781 " fill-opacity="1" fill-rule="nonzero"/><path fill="#ffffff" d="M 187.496094 162.496094 C 186.113281 162.496094 184.984375 161.367188 184.984375 159.984375 L 184.984375 154.957031 C 184.984375 153.574219 186.113281 152.441406 187.496094 152.441406 C 188.882812 152.441406 190.011719 153.574219 190.011719 154.957031 L 190.011719 159.984375 C 190.011719 161.367188 188.882812 162.496094 187.496094 162.496094 Z M 187.496094 180.089844 C 186.113281 180.089844 184.984375 178.960938 184.984375 177.578125 L 184.984375 172.550781 C 184.984375 171.167969 186.113281 170.039062 187.496094 170.039062 C 188.882812 170.039062 190.011719 171.167969 190.011719 172.550781 L 190.011719 177.578125 C 190.011719 178.960938 188.882812 180.089844 187.496094 180.089844 Z M 187.496094 197.683594 C 186.113281 197.683594 184.984375 196.554688 184.984375 195.171875 L 184.984375 190.144531 C 184.984375 188.761719 186.113281 187.632812 187.496094 187.632812 C 188.882812 187.632812 190.011719 188.761719 190.011719 190.144531 L 190.011719 195.171875 C 190.011719 196.554688 188.882812 197.683594 187.496094 197.683594 Z M 187.496094 215.003906 C 186.113281 215.003906 184.984375 213.875 184.984375 212.492188 L 184.984375 207.738281 C 184.984375 206.355469 186.113281 205.226562 187.496094 205.226562 C 188.882812 205.226562 190.011719 206.355469 190.011719 207.738281 L 190.011719 212.492188 C 190.011719 213.875 188.882812 215.003906 187.496094 215.003906 " fill-opacity="1" fill-rule="nonzero"/><path fill="#ffffff" d="M 210.804688 208.015625 C 210.253906 208.015625 209.707031 207.828125 209.246094 207.464844 C 207.859375 206.363281 206.523438 205.175781 205.277344 203.929688 C 204.296875 202.949219 204.296875 201.355469 205.277344 200.375 C 206.257812 199.394531 207.851562 199.394531 208.832031 200.375 C 209.941406 201.496094 211.140625 202.554688 212.367188 203.527344 C 213.457031 204.390625 213.632812 205.972656 212.769531 207.0625 C 212.277344 207.679688 211.542969 208.015625 210.804688 208.015625 Z M 226.269531 216.191406 C 226.011719 216.191406 225.75 216.152344 225.492188 216.066406 C 223.8125 215.523438 222.15625 214.894531 220.566406 214.21875 C 219.296875 213.660156 218.707031 212.1875 219.257812 210.910156 C 219.808594 209.644531 221.28125 209.042969 222.566406 209.605469 C 224 210.222656 225.511719 210.792969 227.042969 211.285156 C 228.359375 211.714844 229.085938 213.128906 228.65625 214.453125 C 228.3125 215.515625 227.328125 216.191406 226.269531 216.191406 Z M 256.019531 217.578125 C 254.9375 217.578125 253.945312 216.878906 253.613281 215.808594 C 253.199219 214.484375 253.9375 213.070312 255.273438 212.65625 C 256.371094 212.324219 256.949219 212.019531 257.195312 211.863281 C 258.382812 211.144531 259.933594 211.519531 260.652344 212.707031 C 261.367188 213.894531 260.996094 215.445312 259.808594 216.164062 C 259.011719 216.644531 257.980469 217.074219 256.753906 217.457031 C 256.507812 217.539062 256.253906 217.578125 256.019531 217.578125 Z M 243.578125 219.019531 C 243.558594 219.019531 243.546875 219.019531 243.539062 219.019531 C 241.8125 218.992188 240.054688 218.890625 238.316406 218.714844 C 236.929688 218.589844 235.921875 217.351562 236.058594 215.976562 C 236.195312 214.59375 237.402344 213.570312 238.796875 213.71875 C 240.40625 213.875 242.027344 213.964844 243.617188 213.992188 C 245 214.011719 246.109375 215.152344 246.089844 216.546875 C 246.070312 217.921875 244.941406 219.019531 243.578125 219.019531 " fill-opacity="1" fill-rule="nonzero"/><path fill="#ffffff" d="M 164.1875 208.015625 C 163.453125 208.015625 162.714844 207.679688 162.226562 207.0625 C 161.359375 205.972656 161.539062 204.390625 162.628906 203.527344 C 163.855469 202.554688 165.054688 201.496094 166.164062 200.375 C 167.144531 199.394531 168.734375 199.394531 169.714844 200.375 C 170.699219 201.355469 170.699219 202.949219 169.714844 203.929688 C 168.46875 205.175781 167.132812 206.363281 165.75 207.464844 C 165.289062 207.828125 164.738281 208.015625 164.1875 208.015625 Z M 148.726562 216.191406 C 147.664062 216.191406 146.683594 215.515625 146.339844 214.453125 C 145.90625 213.128906 146.632812 211.714844 147.949219 211.285156 C 149.480469 210.792969 150.992188 210.222656 152.425781 209.605469 C 153.703125 209.042969 155.1875 209.644531 155.734375 210.910156 C 156.285156 212.1875 155.695312 213.660156 154.429688 214.21875 C 152.839844 214.894531 151.179688 215.523438 149.5 216.066406 C 149.246094 216.152344 148.980469 216.191406 148.726562 216.191406 Z M 118.976562 217.578125 C 118.742188 217.578125 118.484375 217.539062 118.238281 217.457031 C 117.011719 217.074219 115.980469 216.644531 115.1875 216.164062 C 114 215.445312 113.625 213.894531 114.34375 212.707031 C 115.058594 211.519531 116.609375 211.144531 117.796875 211.863281 C 118.042969 212.019531 118.621094 212.324219 119.722656 212.65625 C 121.058594 213.070312 121.792969 214.484375 121.382812 215.808594 C 121.046875 216.878906 120.054688 217.578125 118.976562 217.578125 Z M 131.414062 219.019531 C 130.050781 219.019531 128.921875 217.921875 128.902344 216.546875 C 128.882812 215.152344 129.992188 214.011719 131.375 213.992188 C 132.96875 213.964844 134.585938 213.875 136.199219 213.71875 C 137.589844 213.582031 138.808594 214.59375 138.9375 215.976562 C 139.074219 217.351562 138.0625 218.589844 136.679688 218.714844 C 134.941406 218.890625 133.183594 218.992188 131.457031 219.019531 C 131.445312 219.019531 131.4375 219.019531 131.414062 219.019531 " fill-opacity="1" fill-rule="nonzero"/><path fill="#ffffff" d="M 162.027344 278.007812 C 161.539062 278.007812 161.046875 277.871094 160.605469 277.566406 C 159.160156 276.582031 157.75 275.503906 156.414062 274.375 C 155.351562 273.472656 155.214844 271.890625 156.109375 270.832031 C 157.003906 269.769531 158.59375 269.632812 159.652344 270.527344 C 160.859375 271.558594 162.136719 272.527344 163.441406 273.421875 C 164.589844 274.199219 164.886719 275.769531 164.109375 276.90625 C 163.621094 277.625 162.824219 278.007812 162.027344 278.007812 Z M 177.964844 285.300781 C 177.738281 285.300781 177.523438 285.273438 177.296875 285.214844 C 175.597656 284.753906 173.917969 284.210938 172.289062 283.605469 C 170.992188 283.121094 170.324219 281.667969 170.816406 280.375 C 171.296875 279.066406 172.75 278.410156 174.046875 278.890625 C 175.527344 279.441406 177.058594 279.941406 178.613281 280.363281 C 179.957031 280.726562 180.742188 282.101562 180.378906 283.445312 C 180.074219 284.566406 179.0625 285.300781 177.964844 285.300781 " fill-opacity="1" fill-rule="nonzero"/><path fill="#ffffff" d="M 212.964844 278.007812 C 212.171875 278.007812 211.375 277.625 210.882812 276.90625 C 210.109375 275.769531 210.402344 274.199219 211.550781 273.421875 C 212.855469 272.527344 214.132812 271.558594 215.339844 270.527344 C 216.402344 269.632812 217.992188 269.769531 218.886719 270.832031 C 219.777344 271.890625 219.640625 273.472656 218.582031 274.375 C 217.246094 275.503906 215.832031 276.582031 214.390625 277.566406 C 213.945312 277.859375 213.457031 278.007812 212.964844 278.007812 Z M 197.03125 285.300781 C 195.929688 285.300781 194.917969 284.566406 194.613281 283.445312 C 194.253906 282.101562 195.039062 280.726562 196.382812 280.363281 C 197.933594 279.941406 199.464844 279.441406 200.949219 278.890625 C 202.242188 278.410156 203.695312 279.066406 204.179688 280.375 C 204.667969 281.667969 204 283.121094 202.707031 283.605469 C 201.074219 284.210938 199.398438 284.753906 197.699219 285.214844 C 197.472656 285.273438 197.257812 285.300781 197.03125 285.300781 " fill-opacity="1" fill-rule="nonzero"/><path fill="#ffffff" d="M 190.128906 129.527344 C 190.109375 129.527344 190.089844 129.527344 190.078125 129.527344 C 188.429688 129.488281 186.789062 129.488281 185.160156 129.527344 C 185.140625 129.527344 185.121094 129.527344 185.101562 129.527344 C 183.746094 129.527344 182.617188 128.4375 182.589844 127.0625 C 182.558594 125.679688 183.660156 124.53125 185.050781 124.5 C 186.761719 124.460938 188.46875 124.460938 190.1875 124.5 C 191.570312 124.53125 192.671875 125.679688 192.640625 127.074219 C 192.613281 128.4375 191.492188 129.527344 190.128906 129.527344 Z M 167.617188 131.285156 C 166.417969 131.285156 165.355469 130.429688 165.140625 129.214844 C 164.90625 127.847656 165.808594 126.542969 167.171875 126.296875 C 168.871094 125.992188 170.5625 125.726562 172.25 125.503906 C 173.652344 125.324219 174.890625 126.289062 175.078125 127.664062 C 175.265625 129.035156 174.292969 130.304688 172.925781 130.488281 C 171.296875 130.707031 169.675781 130.960938 168.058594 131.246094 C 167.910156 131.277344 167.761719 131.285156 167.617188 131.285156 Z M 207.613281 131.316406 C 207.46875 131.316406 207.320312 131.296875 207.171875 131.277344 C 205.542969 130.980469 203.921875 130.714844 202.3125 130.5 C 200.9375 130.3125 199.976562 129.046875 200.152344 127.671875 C 200.339844 126.296875 201.617188 125.335938 202.988281 125.523438 C 204.679688 125.746094 206.367188 126.011719 208.054688 126.328125 C 209.429688 126.574219 210.335938 127.878906 210.089844 129.242188 C 209.871094 130.460938 208.8125 131.316406 207.613281 131.316406 Z M 150.582031 135.632812 C 149.53125 135.632812 148.546875 134.957031 148.195312 133.90625 C 147.761719 132.589844 148.46875 131.167969 149.785156 130.726562 C 151.425781 130.1875 153.054688 129.683594 154.695312 129.214844 C 156.039062 128.820312 157.414062 129.605469 157.796875 130.933594 C 158.179688 132.265625 157.414062 133.660156 156.078125 134.042969 C 154.507812 134.496094 152.9375 134.976562 151.375 135.496094 C 151.109375 135.585938 150.847656 135.632812 150.582031 135.632812 Z M 224.414062 135.632812 C 224.148438 135.632812 223.882812 135.585938 223.617188 135.496094 C 222.125 134.996094 220.625 134.535156 219.132812 134.09375 C 217.796875 133.710938 217.039062 132.316406 217.421875 130.980469 C 217.804688 129.644531 219.199219 128.878906 220.542969 129.273438 C 222.097656 129.722656 223.65625 130.214844 225.207031 130.726562 C 226.523438 131.167969 227.230469 132.589844 226.800781 133.90625 C 226.445312 134.96875 225.464844 135.632812 224.414062 135.632812 " fill-opacity="1" fill-rule="nonzero"/><path fill="#ffffff" d="M 292.167969 203.09375 C 290.480469 213.316406 279.914062 225.207031 269.832031 226.777344 C 271.589844 219.394531 272.914062 211.480469 273.796875 203.054688 C 275.144531 200.992188 279.089844 199.402344 282.410156 199.738281 C 284.429688 199.914062 286.328125 198.421875 286.523438 196.351562 C 286.730469 194.277344 285.207031 192.433594 283.136719 192.234375 C 280.433594 191.972656 277.371094 192.453125 274.5625 193.570312 C 274.820312 189.339844 274.976562 184.980469 275.027344 180.53125 C 280.476562 180.738281 285.058594 182.585938 288.144531 185.921875 C 291.902344 189.996094 293.328125 196.105469 292.167969 203.09375 Z M 258.078125 121.917969 C 256.136719 119.59375 254.40625 116.949219 252.570312 114.152344 C 248.085938 107.28125 243.007812 99.496094 233.632812 96.207031 C 231.148438 95.339844 228.9375 95.273438 226.601562 95.203125 C 225.886719 95.183594 225.121094 95.164062 224.296875 95.117188 C 223.914062 95.097656 223.511719 94.800781 223.234375 94.359375 C 216.273438 83.058594 203.953125 76.027344 190.285156 75.546875 C 175.15625 75.046875 160.574219 82.480469 151.238281 95.507812 C 140.398438 110.617188 126.929688 129.460938 103.835938 128.515625 C 101.804688 128.4375 100.117188 130.007812 100.039062 132.023438 C 99.949219 134.042969 101.519531 135.742188 103.542969 135.820312 C 103.796875 135.832031 104.035156 135.8125 104.289062 135.8125 C 102.285156 146.003906 100.28125 160.347656 100.039062 169.09375 C 99.996094 170.421875 100.007812 171.707031 99.976562 173.011719 C 95.855469 173.128906 92.054688 173.984375 88.707031 175.515625 C 85.515625 153.414062 86.09375 116.519531 95.71875 96.570312 C 112.398438 61.980469 150.972656 36.882812 187.46875 36.882812 L 187.535156 36.882812 C 224.019531 36.882812 262.605469 61.988281 279.277344 96.570312 C 288.910156 116.527344 289.46875 153.40625 286.277344 175.507812 C 282.929688 173.984375 279.140625 173.128906 275.015625 173.011719 C 274.988281 171.707031 274.996094 170.421875 274.957031 169.09375 C 274.78125 162.496094 273.945312 150.363281 270.628906 137.195312 C 271.421875 137.363281 272.226562 137.53125 273.050781 137.648438 C 273.230469 137.675781 273.414062 137.6875 273.59375 137.6875 C 275.378906 137.6875 276.941406 136.382812 277.207031 134.566406 C 277.5 132.570312 276.125 130.707031 274.132812 130.410156 C 267.269531 129.390625 262.015625 126.613281 258.078125 121.917969 Z M 240.191406 269.316406 C 228.566406 280.578125 214.792969 291.734375 192.878906 296.957031 C 189.351562 297.800781 185.640625 297.800781 182.105469 296.957031 C 160.203125 291.734375 146.429688 280.578125 134.804688 269.316406 C 115.960938 251.035156 106.292969 215.523438 107.566406 169.3125 C 107.832031 160.367188 110.023438 145.226562 112.074219 135.351562 C 133.832031 132.160156 147.195312 113.699219 157.179688 99.769531 C 165.210938 88.578125 177.199219 82.402344 190.03125 82.863281 C 201.417969 83.265625 211.246094 88.851562 217 98.1875 C 218.53125 100.671875 221.09375 102.253906 223.863281 102.421875 C 224.765625 102.46875 225.601562 102.5 226.386719 102.519531 C 228.371094 102.578125 229.804688 102.617188 231.207031 103.105469 C 238.238281 105.570312 242.222656 111.679688 246.453125 118.148438 C 248.320312 121.003906 250.246094 123.960938 252.472656 126.621094 C 255.132812 129.792969 258.324219 132.304688 261.976562 134.183594 C 266.25 148.449219 267.230469 162.222656 267.425781 169.300781 C 268.703125 215.523438 259.03125 251.035156 240.191406 269.316406 Z M 82.824219 203.09375 C 81.667969 196.105469 83.089844 189.996094 86.851562 185.921875 C 89.925781 182.585938 94.53125 180.738281 99.96875 180.523438 C 100.019531 184.960938 100.175781 189.300781 100.429688 193.523438 C 97.621094 192.421875 94.558594 191.960938 91.859375 192.234375 C 89.789062 192.433594 88.265625 194.277344 88.472656 196.351562 C 88.667969 198.421875 90.535156 199.914062 92.585938 199.738281 C 95.894531 199.402344 99.851562 200.992188 101.195312 203.054688 C 102.078125 211.460938 103.40625 219.355469 105.144531 226.71875 C 95.070312 225.148438 84.515625 213.316406 82.824219 203.09375 Z M 293.691406 180.816406 C 293.523438 180.632812 293.328125 180.472656 293.148438 180.308594 C 297.214844 157.273438 297.046875 116.039062 286.070312 93.300781 C 268.203125 56.234375 226.757812 29.34375 187.535156 29.34375 L 187.457031 29.34375 C 148.234375 29.34375 106.792969 56.234375 88.921875 93.300781 C 77.945312 116.039062 77.78125 157.273438 81.84375 180.308594 C 81.667969 180.472656 81.472656 180.632812 81.304688 180.816406 C 75.933594 186.640625 73.832031 194.996094 75.382812 204.332031 C 77.789062 218.851562 92.429688 234.433594 107.214844 234.492188 C 112.230469 251.507812 119.722656 265.195312 129.550781 274.726562 C 136.304688 281.277344 144.199219 288.148438 154.15625 293.894531 C 152.90625 304.839844 147.742188 330.132812 126.59375 338.625 C 124.660156 339.398438 123.71875 341.597656 124.496094 343.535156 C 125.09375 344.996094 126.507812 345.898438 128 345.898438 C 128.46875 345.898438 128.941406 345.8125 129.402344 345.625 C 152.523438 336.335938 159.289062 311.015625 161.273438 297.613281 C 166.96875 300.304688 173.28125 302.601562 180.359375 304.289062 C 182.695312 304.851562 185.089844 305.132812 187.496094 305.132812 C 189.902344 305.132812 192.296875 304.851562 194.636719 304.289062 C 201.714844 302.601562 208.015625 300.304688 213.722656 297.613281 C 215.695312 310.996094 222.460938 336.328125 245.589844 345.625 C 246.050781 345.8125 246.523438 345.898438 246.996094 345.898438 C 248.488281 345.898438 249.902344 344.996094 250.5 343.535156 C 251.277344 341.597656 250.332031 339.398438 248.398438 338.625 C 227.25 330.132812 222.085938 304.839844 220.839844 293.894531 C 230.796875 288.148438 238.6875 281.277344 245.445312 274.726562 C 255.273438 265.195312 262.773438 251.507812 267.78125 234.492188 C 282.566406 234.433594 297.195312 218.851562 299.609375 204.332031 C 301.160156 194.996094 299.058594 186.640625 293.691406 180.816406 " fill-opacity="1" fill-rule="nonzero"/></svg>